<?xml version="1.0" encoding="UTF-8"?>
<svg version="1.1" xmlns="http://www.w3.org/2000/svg" width="1024" height="1024">
<path d="M0 0 C337.92 0 675.84 0 1024 0 C1024 337.92 1024 675.84 1024 1024 C686.08 1024 348.16 1024 0 1024 C0 686.08 0 348.16 0 0 Z " fill="#50358B" transform="translate(0,0)"/>
<path d="M0 0 C1.4009371 -0.0037415 2.80187211 -0.008345 4.20280385 -0.01373065 C8.03393101 -0.02591433 11.86497054 -0.02570568 15.69611263 -0.02334189 C19.83531463 -0.02293255 23.97448898 -0.03398402 28.11367798 -0.04345703 C36.21617355 -0.06004243 44.31864001 -0.06556546 52.42115113 -0.06668179 C59.00978824 -0.0676334 65.59841578 -0.07174936 72.18704987 -0.07808304 C90.88278743 -0.09568852 109.57850206 -0.10492296 128.27424797 -0.10342209 C129.78485967 -0.10330222 129.78485967 -0.10330222 131.32598877 -0.10317993 C132.83845298 -0.10305729 132.83845298 -0.10305729 134.38147202 -0.10293217 C150.71953601 -0.10211941 167.05750778 -0.12125648 183.3955451 -0.14945666 C200.18675362 -0.17820948 216.97791721 -0.19199565 233.76915097 -0.19026911 C243.18995895 -0.18960605 252.61067024 -0.1950615 262.03145599 -0.21662521 C270.05278125 -0.23486855 278.07396597 -0.23915848 286.09530303 -0.22560637 C290.18406249 -0.21909267 294.2725526 -0.21890133 298.36128616 -0.23631287 C302.11196192 -0.25211988 305.86215645 -0.24910315 309.61282101 -0.2317446 C311.59606723 -0.22725659 313.57932883 -0.24227187 315.56251597 -0.25822389 C337.45553112 -0.09107436 349.31429866 11.01340945 363.85528564 25.66195679 C365.25295733 27.06014793 366.65114944 28.45781902 368.04983521 29.85499573 C370.96076596 32.76601567 373.86650725 35.68208503 376.76837158 38.60214233 C380.49462035 42.35123519 384.23201404 46.08898179 387.97305489 49.82330799 C390.85236358 52.69928543 393.72668211 55.58020673 396.59939194 58.46277428 C397.97682912 59.84406648 399.35562441 61.22400571 400.73578262 62.60257912 C402.65316028 64.51958794 404.56394028 66.44292986 406.47296143 68.36825562 C407.0463475 68.93916428 407.61973358 69.51007294 408.210495 70.09828186 C412.09747314 74.03866644 412.09747314 74.03866644 412.09747314 76.26742554 C413.41747314 76.92742554 414.73747314 77.58742554 416.09747314 78.26742554 C416.09747314 78.92742554 416.09747314 79.58742554 416.09747314 80.26742554 C416.75747314 80.26742554 417.41747314 80.26742554 418.09747314 80.26742554 C419.35890198 81.55380249 419.35890198 81.55380249 420.89556885 83.44320679 C425.75998422 89.15785621 431.11476813 94.34785484 436.45668602 99.61010742 C438.36479134 101.49125436 440.26822044 103.3770165 442.17030334 105.26425171 C447.57299712 110.6245004 452.97843483 115.98188357 458.39996338 121.3230896 C461.73001361 124.60446922 465.0500898 127.89566124 468.36397743 131.19335938 C469.62134886 132.44087908 470.88235576 133.68474632 472.14714622 134.92474365 C473.91761377 136.66124283 475.67506481 138.41001714 477.43023682 140.16195679 C477.94720123 140.66296906 478.46416565 141.16398132 478.99679565 141.68017578 C486.57893093 149.32588976 487.60815273 156.51383095 487.63244677 166.88184273 C487.62379954 168.59762197 487.61477296 170.31339933 487.60540771 172.0291748 C487.61001844 173.86164275 487.61637251 175.694107 487.62431669 177.52656353 C487.64101047 182.55526134 487.63276324 187.58365539 487.62037182 192.61235428 C487.61132351 198.03859258 487.62529024 203.46477856 487.6362915 208.89100647 C487.65408576 219.52000204 487.65023204 230.14888467 487.63864094 240.77788468 C487.62960763 249.41936495 487.62838219 258.06081357 487.63273621 266.70229721 C487.63334914 267.93220692 487.63396207 269.16211663 487.63459358 270.42929634 C487.63587249 272.92790884 487.63716934 275.42652133 487.63848394 277.92513381 C487.64956785 300.69337081 487.63807019 323.46155023 487.61711355 346.22977743 C487.59814549 366.9952895 487.59981782 387.76070341 487.61895752 408.5262146 C487.64038125 431.8694533 487.6487804 455.21263708 487.63650846 478.55588424 C487.63523429 481.04714258 487.63397681 483.53840092 487.63273621 486.02965927 C487.6321191 487.25535847 487.631502 488.48105767 487.6308662 489.74389926 C487.62741682 498.36912667 487.63323306 506.99431917 487.64265442 515.61954117 C487.65389305 526.1397614 487.65079569 536.6598623 487.62953144 547.18006893 C487.61904412 552.54483158 487.61485948 557.90939555 487.62812805 563.27415657 C487.6401066 568.19189907 487.63339967 573.10926001 487.61221784 578.02696823 C487.60777468 579.79950639 487.60996617 581.57207724 487.619721 583.34459414 C487.72379964 603.83972096 482.14854543 620.78479332 467.68634033 635.76449585 C456.33399373 646.50282494 440.93156169 652.43470248 425.43573856 652.40164661 C424.68029478 652.40399884 423.924851 652.40635107 423.14651498 652.40877458 C420.61266151 652.41543668 418.07885965 652.41500721 415.54499817 652.41459656 C413.71084847 652.41789692 411.8766995 652.42162285 410.04255146 652.42573804 C404.99996375 652.43574656 399.95738794 652.43947299 394.9147917 652.44212735 C389.47692652 652.44603381 384.03907073 652.45561192 378.60121155 652.46434021 C365.46744955 652.48409504 352.33368679 652.49416963 339.19991365 652.503068 C333.01297941 652.50745254 326.82604603 652.51281893 320.63911247 652.51805687 C300.0688536 652.53506824 279.49859525 652.54956202 258.92833042 652.55680561 C253.59123801 652.55871546 248.25414561 652.56063414 242.91705322 652.56259155 C241.92249152 652.56295178 241.92249152 652.56295178 240.90783765 652.56331928 C219.42094918 652.57120839 197.93411596 652.5946327 176.44725161 652.6271475 C153.71599128 652.66148238 130.98476324 652.68115904 108.25347656 652.68444985 C95.86808724 652.68661362 83.48277914 652.69534294 71.09741402 652.72091103 C60.54864488 652.74263755 49.99997671 652.75065879 39.45118774 652.74094424 C34.07212602 652.73640524 28.69327254 652.73826269 23.3142395 652.75770569 C18.38219841 652.77537848 13.45051684 652.77430623 8.51847171 652.7588084 C6.74181011 652.75643858 4.96512335 652.7607231 3.18850011 652.77263705 C-17.74342544 652.90422064 -34.99612371 647.82892415 -50.43377686 632.95883179 C-66.67794755 615.24960139 -68.20616617 595.31015226 -68.16995239 572.53834534 C-68.17369148 570.31143567 -68.17829403 568.0845273 -68.18368304 565.85762101 C-68.19589622 559.7526375 -68.19565455 553.64770885 -68.19329429 547.54271591 C-68.1929277 541.63019918 -68.20191556 535.71770123 -68.21052006 529.80519183 C-68.22983434 516.22337293 -68.2354873 502.64156915 -68.23663418 489.05973812 C-68.23755416 478.5700333 -68.24167549 468.08033439 -68.24803543 457.59063148 C-68.24983058 454.56843466 -68.25161021 451.54623783 -68.25338519 448.524041 C-68.25382728 447.77266465 -68.25426938 447.02128831 -68.25472487 446.24714298 C-68.26702832 425.12062237 -68.27492649 403.99410381 -68.27403831 382.86757946 C-68.27400716 382.07151415 -68.273976 381.27544885 -68.2739439 380.45526035 C-68.27377769 376.42069431 -68.27357961 372.38612827 -68.27337448 368.35156222 C-68.27333459 367.55031731 -68.2732947 366.74907239 -68.2732536 365.92354732 C-68.27317273 364.3032364 -68.27308913 362.68292549 -68.27300282 361.06261457 C-68.27177728 335.85246014 -68.28679318 310.6423595 -68.31414795 285.43222046 C-68.34488532 257.09316995 -68.3620795 228.75415479 -68.36022151 200.41508657 C-68.36007225 197.39194667 -68.35997483 194.36880678 -68.35991287 191.34566689 C-68.35988956 190.60132105 -68.35986625 189.85697522 -68.35984224 189.09007345 C-68.35978076 177.12554045 -68.37253772 165.16105426 -68.3897774 153.19653516 C-68.40675105 141.16770659 -68.40869413 129.13894633 -68.39555876 117.11011239 C-68.38882949 110.59702025 -68.38891591 104.08406333 -68.40626526 97.57098389 C-68.4219958 91.60420631 -68.41913209 85.63773219 -68.40169699 79.67096201 C-68.39862715 77.51694964 -68.40225882 75.36291462 -68.41341715 73.20892897 C-68.51344384 52.52356857 -64.73269371 36.36684372 -50.90252686 20.26742554 C-50.13875732 19.36057007 -50.13875732 19.36057007 -49.35955811 18.43539429 C-36.26585914 4.11315073 -18.59585365 -0.04472231 0 0 Z " fill="#FEAE22" transform="translate(301.90252685546875,185.73257446289063)"/>
<path d="M0 0 C1.43840882 0.14906315 2.87650101 0.30118369 4.31445312 0.45458984 C5.11532349 0.53897308 5.91619385 0.62335632 6.74133301 0.71029663 C9.46445531 1.05957242 11.91360509 1.70698946 14.5 2.625 C15.3353125 2.90601563 16.170625 3.18703125 17.03125 3.4765625 C27.36070607 8.77720443 35.34289577 18.04917314 43.44140625 26.17578125 C44.8183068 27.55133263 46.19550396 28.92658716 47.57298279 30.30155945 C50.44131759 33.16696179 53.30604343 36.03591036 56.16821289 38.9074707 C59.84354852 42.59427543 63.52789275 46.27192691 67.214921 49.94703388 C70.05198558 52.77689324 72.88429667 55.6114714 75.71516228 58.44753075 C77.07292698 59.80663176 78.43218484 61.16424274 79.79294014 62.5203495 C81.68396773 64.40632576 83.56851287 66.29854426 85.45141602 68.19262695 C86.0170224 68.75418488 86.58262878 69.3157428 87.16537476 69.89431763 C91 73.77145745 91 73.77145745 91 76 C92.98 76.99 92.98 76.99 95 78 C95 78.66 95 79.32 95 80 C95.66 80 96.32 80 97 80 C98.26142883 81.28637695 98.26142883 81.28637695 99.7980957 83.17578125 C104.66251107 88.89043067 110.01729498 94.08042931 115.35921288 99.34268188 C117.26731819 101.22382882 119.17074729 103.10959096 121.0728302 104.99682617 C126.47552398 110.35707486 131.88096168 115.71445803 137.30249023 121.05566406 C140.63254046 124.33704368 143.95261665 127.6282357 147.26650429 130.92593384 C148.52387571 132.17345354 149.78488262 133.41732078 151.04967308 134.65731812 C152.82014063 136.39381729 154.57759167 138.14259161 156.33276367 139.89453125 C156.84972809 140.39554352 157.3666925 140.89655579 157.89932251 141.41275024 C162.5430214 146.09538808 165.67464515 150.98070696 166.390625 157.625 C166.34421875 158.73875 166.2978125 159.8525 166.25 161 C166.21390625 162.134375 166.1778125 163.26875 166.140625 164.4375 C166.09421875 165.283125 166.0478125 166.12875 166 167 C152.17766771 167.09303173 138.35541096 167.16393278 124.53282833 167.20724869 C118.11316233 167.22804713 111.6937119 167.2562226 105.27416992 167.30175781 C99.06903044 167.34549249 92.8640972 167.36919521 86.65881538 167.37950897 C84.30154745 167.38685099 81.9442897 167.40118702 79.58711052 167.42292023 C66.77260556 167.53627924 55.1562785 167.38991444 43 163 C42.25852722 162.73547531 41.51705444 162.47095062 40.75311279 162.19841003 C25.10989992 156.02416733 14.20280159 143.69976497 6.8125 128.9375 C-0.04960023 112.89559454 -0.5546878 97.57190403 -0.390625 80.37109375 C-0.38314666 78.04126984 -0.37746128 75.71143956 -0.37347412 73.38160706 C-0.35834322 67.30711911 -0.31917204 61.23302559 -0.2746582 55.15869141 C-0.23343213 48.93722872 -0.21540521 42.7157011 -0.1953125 36.49414062 C-0.15266361 24.32925563 -0.0845677 12.16466086 0 0 Z " fill="#FE8D11" transform="translate(623,186)"/>
<path d="M0 0 C1.05563277 -0.00445784 2.11126553 -0.00891569 3.19888717 -0.01350862 C4.93684744 -0.01323207 4.93684744 -0.01323207 6.70991802 -0.01294994 C8.55748535 -0.01846498 8.55748535 -0.01846498 10.44237727 -0.02409142 C13.8631143 -0.03321154 17.28380338 -0.03782646 20.704548 -0.04048073 C24.3931335 -0.04438686 28.08170515 -0.05396484 31.77028179 -0.0626936 C40.67787882 -0.08244702 49.58547697 -0.0925218 58.49309042 -0.10142139 C62.68766814 -0.10580524 66.8822446 -0.11117171 71.07682133 -0.11641026 C85.01937409 -0.13341975 98.96192607 -0.14791482 112.90448761 -0.155159 C116.52181595 -0.15706888 120.13914428 -0.15898922 123.75647259 -0.16094494 C125.10507381 -0.16167055 125.10507381 -0.16167055 126.4809195 -0.16241082 C141.05152615 -0.1707146 155.6220508 -0.19605864 170.19262163 -0.22852562 C185.15075786 -0.26158466 200.1088524 -0.27960662 215.06702536 -0.28280324 C223.46603463 -0.28496917 231.86492422 -0.29373018 240.2638979 -0.31926441 C247.41521714 -0.34095547 254.56638764 -0.34902964 261.71773604 -0.33929763 C265.36625243 -0.33474855 269.01446181 -0.33667414 272.66293621 -0.35605907 C276.61907302 -0.3768972 280.57478543 -0.36671965 284.53096294 -0.35352612 C285.68291096 -0.36449536 286.83485898 -0.37546461 288.02171451 -0.38676625 C294.51766871 -0.33435122 298.54335882 0.23130241 303.81091595 4.13422108 C306.89970934 7.53981379 308.06618668 10.11645372 308.24841595 14.63422108 C307.9729365 20.09789685 306.37371488 23.65156568 302.37341595 27.44672108 C298.47416483 30.0145206 295.25101832 30.25932275 290.64024258 30.26564884 C289.58870991 30.26948999 288.53717723 30.27333113 287.45377994 30.27728868 C286.29971282 30.27642219 285.14564571 30.27555571 283.95660686 30.27466297 C282.72968443 30.27763409 281.502762 30.28060522 280.2386601 30.28366637 C276.83125322 30.29084737 273.42389676 30.29352574 270.01648593 30.29426384 C266.34219819 30.29611501 262.66792137 30.30366267 258.99363995 30.31039906 C250.95847346 30.32398036 242.92331196 30.33000677 234.88813591 30.33440971 C229.8707999 30.33717247 224.85346581 30.34140988 219.8361311 30.34591389 C205.94419126 30.35810627 192.05225296 30.36840566 178.16030788 30.37178898 C177.27120988 30.37200854 176.38211187 30.37222811 175.4660715 30.37245433 C174.57484823 30.37267261 173.68362496 30.37289089 172.76539493 30.37311578 C170.9594423 30.37355924 169.15348967 30.37400581 167.34753704 30.37445545 C166.45172248 30.37467688 165.55590793 30.37489831 164.63294747 30.37512645 C150.11799794 30.37907435 135.60309861 30.39652826 121.08816847 30.41981497 C106.18539767 30.4435309 91.28265205 30.45599094 76.37986207 30.4571569 C68.01270294 30.45807352 59.64560924 30.46382262 51.27846813 30.48197651 C44.15354371 30.49738074 37.02870493 30.50249606 29.90376702 30.49423841 C26.26935537 30.49033304 22.63511615 30.49125583 19.00072575 30.50529575 C15.05812938 30.52038685 11.11577537 30.51216475 7.1731596 30.50171375 C6.02801537 30.50977016 4.88287115 30.51782656 3.70302558 30.5261271 C-3.09342746 30.48395281 -9.87309098 30.31204777 -15.06408405 25.33734608 C-17.68780868 20.78226859 -19.07069838 17.52186419 -18.18908405 12.13422108 C-16.2732896 7.30397335 -13.58232671 3.9898288 -9.18908405 1.13422108 C-6.09067284 0.13096564 -3.2450681 0.00636344 0 0 Z " fill="#494A4D" transform="translate(367.18908405303955,592.8657789230347)"/>
<path d="M0 0 C1.19249219 -0.00668677 1.19249219 -0.00668677 2.40907514 -0.01350862 C3.27657632 -0.01332426 4.1440775 -0.01313989 5.03786659 -0.01294994 C5.96401728 -0.01662663 6.89016797 -0.02030332 7.84438384 -0.02409142 C10.95499574 -0.03512511 14.06557423 -0.03897153 17.17620277 -0.04278088 C19.40348352 -0.04904561 21.63076321 -0.05569242 23.85804176 -0.0626936 C29.91379612 -0.08009873 35.96954259 -0.09065342 42.02531576 -0.09889913 C45.80708484 -0.1040489 49.58885147 -0.11012455 53.37061882 -0.11641026 C63.84322654 -0.13327609 74.31583313 -0.14791233 84.78845215 -0.155159 C87.50445367 -0.15706883 90.22045519 -0.15898918 92.93645668 -0.16094494 C93.61149036 -0.16142868 94.28652405 -0.16191242 94.9820133 -0.16241082 C105.92235393 -0.17071501 116.86258537 -0.19606083 127.80287831 -0.22852562 C139.03761667 -0.26159227 150.27230156 -0.27927444 161.50709498 -0.28280324 C167.81408014 -0.28515697 174.12089253 -0.29416005 180.42783165 -0.31926441 C186.35891402 -0.342492 192.28970918 -0.34679967 198.2208252 -0.33650303 C200.39849552 -0.33600631 202.57617974 -0.34236647 204.75380707 -0.35605907 C207.72522361 -0.37369889 210.69560049 -0.36671058 213.66701698 -0.35352612 C214.53005672 -0.36449536 215.39309645 -0.37546461 216.28228891 -0.38676625 C222.59819042 -0.31903897 225.97551495 1.54464307 230.79192543 5.69672108 C233.47346146 8.94279101 233.32052004 12.78552232 233.24895668 16.78656483 C232.80434001 20.65924046 231.53362186 23.22192915 228.97942543 26.13422108 C223.42413467 30.03912877 218.16256579 30.71344428 211.52935219 30.64888477 C210.14936696 30.65930307 210.14936696 30.65930307 208.74150324 30.66993183 C205.67537783 30.68814935 202.61003075 30.67795206 199.54387856 30.66766834 C197.33895224 30.6747294 195.13403077 30.68347519 192.9291172 30.69377613 C186.95189209 30.71625727 180.97493193 30.71333347 174.99768066 30.70445466 C170.00499061 30.69934129 165.01235018 30.70664009 160.01966524 30.71392673 C147.56840234 30.73189234 135.117257 30.72551912 122.66600448 30.70775693 C111.86301399 30.69305858 101.06030161 30.70769338 90.25734693 30.73652709 C79.15126924 30.76594803 68.04530293 30.77637795 56.93918562 30.76734489 C50.70931811 30.76241638 44.4796668 30.76462775 38.24982643 30.78513241 C32.39245759 30.80348884 26.53560568 30.79753062 20.67826462 30.77293301 C18.53046934 30.76792539 16.38263467 30.77141352 14.23487091 30.78408146 C11.29915373 30.80002535 8.36513607 30.78504796 5.42949867 30.76241016 C4.582795 30.77424589 3.73609132 30.78608162 2.86372995 30.79827601 C-3.17661869 30.70386568 -7.37877931 29.04799097 -12.02057457 25.13422108 C-14.74596008 21.91712448 -15.92047191 18.83493973 -16.52057457 14.63422108 C-15.78356109 9.4751267 -13.89053815 5.88731194 -10.02057457 2.25922108 C-6.76179834 0.42615945 -3.70194073 0.00966877 0 0 Z " fill="#4B4A4C" transform="translate(365.02057456970215,661.8657789230347)"/>
<path d="M0 0 C5.11762818 2.65358498 8.17705942 5.53117826 10 11 C10.4559733 17.08222016 9.06600836 22.07191695 7.3125 27.8125 C6.75467312 29.70166496 6.19738955 31.59099043 5.640625 33.48046875 C5.36154297 34.41681152 5.08246094 35.3531543 4.79492188 36.31787109 C3.68082709 40.0769145 2.61243779 43.8475972 1.5625 47.625 C1.26508911 48.6917395 1.26508911 48.6917395 0.96166992 49.7800293 C-0.90529628 56.53907732 -2.63431885 63.33256462 -4.375 70.125 C-7.12566531 80.83756663 -10.12012116 91.45664787 -13.25390625 102.0625 C-18.13338591 118.58687284 -22.60537767 135.2204711 -27.00830078 151.87695312 C-29.41708454 160.94007529 -31.96556436 169.95372811 -34.65429688 178.93774414 C-36.37243258 184.70614439 -37.87723553 190.48729714 -39.22387695 196.35449219 C-40.63936416 201.17934888 -42.96221362 204.73326793 -47.3125 207.4375 C-52.76311223 208.57832582 -56.40824141 208.84092907 -61.3125 206.25 C-65.79616103 202.49623728 -67.28240698 200.23471542 -67.94458008 194.30126953 C-68.04470917 190.14348603 -66.98403517 186.31143057 -65.9375 182.3125 C-65.64842773 181.12817383 -65.64842773 181.12817383 -65.35351562 179.91992188 C-63.56239892 172.74997764 -61.47891294 165.66153099 -59.43600464 158.56045532 C-56.64560105 148.82756415 -54.01723681 139.05250482 -51.39169312 129.27410889 C-47.521622 114.8680608 -43.64146041 100.47463785 -39.38427734 86.17749023 C-37.1810898 78.73713945 -35.17102151 71.25163648 -33.1875 63.75 C-30.29375197 52.83251545 -27.38868105 41.91838313 -24.40518188 31.02502441 C-23.97306438 29.44211654 -23.54393905 27.85838838 -23.11801147 26.27380371 C-17.83477659 6.63700148 -17.83477659 6.63700148 -12.3125 1.5 C-8.03458548 -0.43716884 -4.6208191 -0.82810378 0 0 Z " fill="#494A4D" transform="translate(539,344)"/>
<path d="M0 0 C5.06461543 2.84668698 9.08171682 6.69902301 13.25 10.6875 C14.57483359 11.94083102 15.9003558 13.19343453 17.2265625 14.4453125 C17.86883789 15.0527832 18.51111328 15.66025391 19.17285156 16.28613281 C22.34591962 19.26247404 25.5952927 22.15021546 28.8515625 25.03515625 C31.31186922 27.28521858 33.64433531 29.64020365 36 32 C37.62618267 33.60514415 39.25584688 35.20671035 40.88539124 36.80844116 C43.44500784 39.32763901 45.99644011 41.85506185 48.54760742 44.3828125 C49.88998694 45.71006525 51.235041 47.03461846 52.58276367 48.35644531 C54.54285949 50.27995523 56.49292822 52.21316837 58.44140625 54.1484375 C59.03941544 54.73096283 59.63742462 55.31348816 60.2535553 55.91366577 C64.51059023 60.16899088 68.37443887 64.60128205 69.49609375 70.6953125 C69.46708984 71.89800781 69.46708984 71.89800781 69.4375 73.125 C69.43621094 73.93195313 69.43492187 74.73890625 69.43359375 75.5703125 C68.42098324 81.24458042 64.28483057 85.004018 60.33862305 88.92016602 C59.77236206 89.48993164 59.20610107 90.05969727 58.62268066 90.64672852 C56.75734504 92.52083573 54.88482485 94.38756773 53.01171875 96.25390625 C51.70729315 97.55967999 50.40316449 98.86575043 49.09931946 100.17210388 C46.36803758 102.90633099 43.63317998 105.6369169 40.89575195 108.36499023 C37.39535455 111.85400489 33.90399751 115.3519061 30.41528606 118.85260105 C27.7242451 121.55088642 25.02843711 124.24436861 22.33118629 126.93644524 C21.04238062 128.22392097 19.75504729 129.51287239 18.469244 130.80334663 C16.66749241 132.61020459 14.85940537 134.41048194 13.04956055 136.20922852 C12.26144737 137.00341438 12.26144737 137.00341438 11.45741272 137.81364441 C6.1904127 143.02127765 1.61829544 146.58481073 -5.82421875 147.09765625 C-9.19388158 146.94641465 -11.25572863 145.91460793 -14 144 C-17.33372717 140.3058699 -19.15008756 137.77890134 -19.3125 132.8125 C-19.34988281 132.07644531 -19.38726563 131.34039062 -19.42578125 130.58203125 C-18.38973116 124.29919536 -13.9924168 119.49479853 -9.75 115 C-8.41195312 113.5459375 -8.41195312 113.5459375 -7.046875 112.0625 C-4.98561105 109.92805709 -2.84000439 107.97782897 -0.578125 106.05859375 C6.31053647 100.1196979 12.59363248 93.51018384 19 87.0625 C20.36044318 85.69703255 21.72111831 84.33179614 23.08203125 82.96679688 C26.3907031 79.64719114 29.69621322 76.32446727 33 73 C32.06684879 71.90062509 31.13212916 70.80258136 30.19677734 69.70507812 C29.41625504 68.78764832 29.41625504 68.78764832 28.6199646 67.85168457 C26.07666535 64.94459143 23.36513401 62.22027797 20.625 59.5 C20.0990625 58.97019531 19.573125 58.44039063 19.03125 57.89453125 C16.19552004 55.06565088 13.29637375 52.36406122 10.2578125 49.75390625 C5.02224136 45.21909037 0.14747844 40.33153436 -4.75 35.4375 C-5.68199219 34.51775391 -6.61398437 33.59800781 -7.57421875 32.65039062 C-8.92193359 31.30557617 -8.92193359 31.30557617 -10.296875 29.93359375 C-11.10479492 29.12978271 -11.91271484 28.32597168 -12.74511719 27.49780273 C-17.53458996 22.19235709 -19.69587911 18.49171068 -19.38671875 11.40234375 C-18.64112309 6.77061314 -16.29315988 4.14102343 -12.875 1.125 C-8.64039148 -0.53202073 -4.47337798 -0.85431429 0 0 Z " fill="#4A4A4D" transform="translate(589,375)"/>
<path d="M0 0 C3.87712185 2.06596191 6.26484184 4.72146406 8.4375 8.5 C9.34594462 12.53753165 9.86855702 15.30925021 7.90234375 19.13671875 C4.53512973 24.42548957 0.54410411 28.72088685 -4 33 C-5.66929603 34.66409993 -7.33531085 36.33130106 -9 38 C-10.22942964 39.22971748 -11.45901583 40.45927846 -12.6887207 41.6887207 C-13.36904861 42.36904861 -14.04937653 43.04937653 -14.75032043 43.75032043 C-24.16688029 53.16688029 -33.58344014 62.58344014 -43 72 C-39.37152806 76.32774644 -35.65222079 80.46286679 -31.62890625 84.43359375 C-31.14348862 84.91522476 -30.65807098 85.39685577 -30.15794373 85.89308167 C-28.11753856 87.91742048 -26.07113369 89.93565132 -24.02514648 91.9543457 C-18.6895511 97.22511211 -13.44866571 102.50494379 -8.57592773 108.21459961 C-5.45868952 111.74618181 -1.98600851 114.94368199 1.45703125 118.15429688 C5.76640374 122.3261362 8.61815325 126.27102779 9.25 132.44140625 C8.57851341 138.13855025 7.22941772 141.05895167 3 145 C-0.96996108 147.29839852 -4.47556123 147.6032585 -9 147 C-17.84232478 142.71544758 -24.63581206 134.80097143 -31.4609375 127.9375 C-32.74082494 126.65963716 -34.02115711 125.38221963 -35.3019104 124.10522461 C-37.9709835 121.44055186 -40.63461196 118.77058615 -43.29443359 116.09667969 C-46.69703664 112.67693404 -50.11300399 109.27090552 -53.53313255 105.86869812 C-56.17401287 103.23867304 -58.80768847 100.60152655 -61.43925858 97.96218872 C-62.69611347 96.70333935 -63.95518202 95.44669595 -65.21653366 94.19235229 C-66.97774137 92.43879335 -68.72899821 90.67585162 -70.47802734 88.91015625 C-71.25415375 88.14313889 -71.25415375 88.14313889 -72.04595947 87.36062622 C-76.25104082 83.08130168 -78.66920604 79.20529304 -79.5625 73.25 C-79.17560645 64.12736852 -71.18350701 56.60610529 -65.0390625 50.61328125 C-64.289664 49.86717087 -63.5402655 49.12106049 -62.76815796 48.3523407 C-60.39637394 45.99615098 -58.01078255 43.6545045 -55.625 41.3125 C-54.03298466 39.73199515 -52.44183144 38.15062141 -50.8515625 36.56835938 C-49.31066588 35.04088946 -47.76902383 33.51417109 -46.2265625 31.98828125 C-45.52109283 31.29019852 -44.81562317 30.59211578 -44.08877563 29.87287903 C-40.11374348 25.97279367 -36.0506453 22.22660405 -31.81898499 18.60594177 C-28.01772675 15.24989461 -24.5449357 11.54491699 -21.02539062 7.8984375 C-14.58068964 1.33186787 -9.44908573 -1.67623266 0 0 Z " fill="#494A4E" transform="translate(443,375)"/>
<path d="M0 0 C0.98011066 -0.00679667 0.98011066 -0.00679667 1.98002154 -0.01373065 C4.16168549 -0.02635496 6.34309918 -0.0247556 8.52479553 -0.02310181 C10.09213582 -0.02908822 11.65947317 -0.03589402 13.22680664 -0.04345703 C17.47885973 -0.0611108 21.73083231 -0.06581209 25.9829185 -0.0670886 C28.64020737 -0.06851088 31.29747581 -0.07278189 33.9547596 -0.07808304 C43.22714156 -0.09657982 52.49946605 -0.10475391 61.77186584 -0.10317993 C70.41236937 -0.10197797 79.05262332 -0.12309195 87.69306368 -0.15466726 C95.11486483 -0.18082188 102.53658442 -0.1915476 109.9584313 -0.19026911 C114.38970407 -0.18975933 118.82075491 -0.19545192 123.25198174 -0.21662521 C127.41928513 -0.23599449 131.58615455 -0.23614126 135.75347328 -0.22159195 C137.28128061 -0.21950125 138.80911501 -0.22422038 140.33687592 -0.23631287 C142.42602045 -0.25177563 144.51367032 -0.24245304 146.6027832 -0.22705078 C147.77065337 -0.22814032 148.93852354 -0.22922985 150.14178371 -0.2303524 C154.89178311 0.50324107 158.03533408 2.75449007 161.17738342 6.32992554 C163.60719765 10.29435928 163.67382645 13.71051586 163.36488342 18.26742554 C161.62071968 22.94912821 159.49452503 25.47991745 155.36488342 28.26742554 C152.01810002 29.38302001 149.49797532 29.40170416 145.97027588 29.41459656 C145.31857762 29.41827325 144.66687936 29.42194993 143.99543267 29.42573804 C141.80762119 29.43676752 139.61985721 29.44061743 137.43202209 29.44442749 C135.86497853 29.45069264 134.29793645 29.45733949 132.730896 29.46434021 C127.58155857 29.48537474 122.43222086 29.49574118 117.28285217 29.50570679 C115.5101552 29.5097544 113.73745839 29.51387132 111.96476173 29.51805687 C103.63749706 29.53710623 95.31024125 29.55133849 86.98295897 29.55966884 C77.36966906 29.56944446 67.75660921 29.59577347 58.14340037 29.63616973 C50.71315699 29.66632185 43.28297959 29.6811368 35.85267621 29.68444985 C31.4146522 29.68680115 26.97687404 29.69577196 22.53891563 29.72091103 C18.36345057 29.7441814 14.18839342 29.74842929 10.01288033 29.73814964 C8.48184223 29.73765394 6.95078412 29.74398476 5.41980743 29.75770569 C3.32619767 29.77541678 1.23405319 29.76832447 -0.85955811 29.75517273 C-2.03002591 29.75756108 -3.20049372 29.75994944 -4.40643024 29.76241016 C-9.38480484 28.99918369 -13.43545622 26.14069861 -16.63511658 22.26742554 C-18.09622098 17.88411233 -18.36933128 13.83895107 -17.63511658 9.26742554 C-13.66864749 1.97338172 -8.03470742 0.02306638 0 0 Z " fill="#4A4A4C" transform="translate(367.63511657714844,729.7325744628906)"/>
<path d="M0 0 C1.759366 -0.00298657 1.759366 -0.00298657 3.55427474 -0.00603348 C4.84900389 -0.00312064 6.14373305 -0.0002078 7.47769642 0.00279331 C8.86209391 0.00235746 10.24649132 0.0014823 11.63088828 0.00020415 C15.44364795 -0.00203811 19.25637968 0.00197681 23.06913579 0.00698221 C27.1775059 0.01129036 31.28587437 0.00984002 35.3942461 0.00907993 C42.51512178 0.00855493 49.63598831 0.01169927 56.75686169 0.01731777 C67.05251932 0.02543597 77.34817253 0.02804832 87.64383302 0.02930576 C104.34682356 0.03149578 121.04980923 0.0381545 137.75279713 0.04760838 C153.98066146 0.05678379 170.20852447 0.063864 186.43639088 0.06811619 C187.43624622 0.06837891 188.43610157 0.06864164 189.46625557 0.06891232 C194.48210753 0.07021733 199.49795949 0.07148105 204.51381147 0.07272422 C246.14222349 0.08309526 287.77063015 0.10071221 329.39903736 0.12304783 C329.40268299 1.40074543 329.40632862 2.67844303 329.41008472 3.99485874 C329.44720345 16.10109994 329.50515874 28.20709074 329.5829401 40.31314087 C329.62226367 46.5353496 329.65452593 52.75742 329.67003345 58.97973728 C329.68530007 64.99701662 329.71992116 71.01391526 329.76734638 77.03102398 C329.78205767 79.31400377 329.79007241 81.59703794 329.79092121 83.88006496 C329.80167267 98.31265829 329.95193374 112.52497363 336.09587574 125.89793491 C337.39903736 129.12304783 337.39903736 129.12304783 336.39903736 132.12304783 C328.0832263 116.01732681 327.93579679 100.50099699 327.88731861 82.78711033 C327.87044532 80.45298427 327.85229158 78.11886715 327.83292103 75.78476048 C327.78570273 69.68577971 327.75571181 63.5868352 327.7294817 57.48773289 C327.69953312 51.24630672 327.65305236 45.00500517 327.60802174 38.76367283 C327.52230956 26.55019673 327.45482253 14.33669476 327.39903736 2.12304783 C326.45802174 2.20683689 325.51700611 2.29062595 324.54747486 2.37695408 C323.30224049 2.47879002 322.05700611 2.58062595 320.77403736 2.68554783 C319.54427174 2.78996189 318.31450611 2.89437595 317.04747486 3.00195408 C313.64276274 3.11495844 310.72345338 2.81350346 307.39903736 2.12304783 C307.06903736 2.78304783 306.73903736 3.44304783 306.39903736 4.12304783 C306.39903736 3.46304783 306.39903736 2.80304783 306.39903736 2.12304783 C301.73240539 2.72317654 301.73240539 2.72317654 297.14903736 3.74804783 C295.39903736 4.12304783 295.39903736 4.12304783 292.39903736 3.12304783 C289.42107167 3.02284971 289.42107167 3.02284971 286.64903736 3.68554783 C282.98224909 4.17915394 280.0556835 3.6490281 276.39903736 3.12304783 C274.20450858 3.04604537 272.007978 3.01499435 269.8121233 3.02539158 C268.54680775 3.0286948 267.2814922 3.03199802 265.97783375 3.03540134 C265.31109386 3.0395203 264.64435398 3.04363926 263.95740986 3.04788303 C261.84510763 3.06078174 259.73286915 3.0671971 257.62053394 3.07202244 C252.37294183 3.0853127 247.12541041 3.10945014 241.87785816 3.13342381 C237.43922469 3.15330061 233.00061463 3.16888266 228.56194782 3.17898655 C226.49993083 3.18538033 224.43801267 3.19788865 222.37602711 3.21069431 C214.98836272 3.2297902 207.74035561 2.96991186 200.39903736 2.12304783 C200.06903736 2.78304783 199.73903736 3.44304783 199.39903736 4.12304783 C199.39903736 3.46304783 199.39903736 2.80304783 199.39903736 2.12304783 C198.25990894 2.28675877 197.12078053 2.4504697 195.94713306 2.61914158 C191.48803813 3.17430248 187.11730903 3.23463815 182.62950611 3.18554783 C181.82668705 3.18176121 181.02386799 3.17797459 180.19672108 3.17407322 C177.65993555 3.1619666 175.12326989 3.14332431 172.58653736 3.12304783 C169.22586355 3.09646372 165.86524528 3.0764943 162.50450611 3.06054783 C161.73575657 3.05224949 160.96700703 3.04395115 160.17496204 3.03540134 C156.97368987 3.02060601 154.45990508 3.10275859 151.39903736 4.12304783 C149.73237069 4.12304783 148.06570403 4.12304783 146.39903736 4.12304783 C146.39903736 3.46304783 146.39903736 2.80304783 146.39903736 2.12304783 C145.84216236 2.47367283 145.28528736 2.82429783 144.71153736 3.18554783 C142.39903736 4.12304783 142.39903736 4.12304783 140.32481861 3.69336033 C136.29688428 2.90820891 132.36787498 2.93883341 128.27403736 2.93554783 C127.46321705 2.92330173 126.65239674 2.91105564 125.81700611 2.89843845 C125.0371233 2.89650486 124.25724049 2.89457127 123.45372486 2.89257908 C122.39387379 2.88641575 122.39387379 2.88641575 121.31261158 2.88012791 C119.07039107 3.02039556 119.07039107 3.02039556 116.39903736 5.12304783 C115.85392506 4.79780125 115.30881275 4.47255466 114.74718189 4.13745213 C111.93827597 2.92399776 109.88290003 2.87966555 106.82872486 2.89257908 C105.2373772 2.89547947 105.2373772 2.89547947 103.61388111 2.89843845 C102.51173267 2.91068455 101.40958424 2.92293064 100.27403736 2.93554783 C98.60921314 2.93651463 98.60921314 2.93651463 96.91075611 2.93750095 C91.48435714 2.71337052 91.48435714 2.71337052 86.39903736 4.12304783 C84.72998827 3.80185625 83.06365555 3.46646476 81.39903736 3.12304783 C79.52450796 3.08104157 77.64858218 3.08173555 75.77403736 3.12304783 C72.54214454 3.19388384 70.49247484 3.15419366 67.39903736 2.12304783 C67.06903736 2.78304783 66.73903736 3.44304783 66.39903736 4.12304783 C66.39903736 3.46304783 66.39903736 2.80304783 66.39903736 2.12304783 C65.27755299 2.24873142 65.27755299 2.24873142 64.13341236 2.37695408 C63.14856861 2.47879002 62.16372486 2.58062595 61.14903736 2.68554783 C60.17450611 2.78996189 59.19997486 2.89437595 58.19591236 3.00195408 C55.63590216 3.11279251 53.81755578 2.90042875 51.39903736 2.12304783 C51.06903736 2.78304783 50.73903736 3.44304783 50.39903736 4.12304783 C50.39903736 3.46304783 50.39903736 2.80304783 50.39903736 2.12304783 C45.75316844 2.60789058 45.75316844 2.60789058 41.39903736 4.12304783 C39.72913137 3.80634152 38.06290497 3.47008307 36.39903736 3.12304783 C29.99062525 2.81873776 23.67856333 3.02902964 17.33653736 4.00195408 C15.39903736 4.12304783 15.39903736 4.12304783 13.33653736 3.58789158 C11.201574 2.89507552 11.201574 2.89507552 8.39903736 4.12304783 C8.39903736 3.46304783 8.39903736 2.80304783 8.39903736 2.12304783 C6.41903736 2.78304783 4.43903736 3.44304783 2.39903736 4.12304783 C2.39903736 3.46304783 2.39903736 2.80304783 2.39903736 2.12304783 C-1.32529646 3.33562163 -4.9789907 4.63164762 -8.60096264 6.12304783 C-8.60096264 5.46304783 -8.60096264 4.80304783 -8.60096264 4.12304783 C-9.59096264 3.79304783 -10.58096264 3.46304783 -11.60096264 3.12304783 C-7.51526424 0.3992489 -4.80081157 -0.00179336 0 0 Z " fill="#FEDB22" transform="translate(293.600962638855,185.87695217132568)"/>
<path d="M0 0 C-0.86625 0.4021875 -0.86625 0.4021875 -1.75 0.8125 C-4.05074391 1.93308209 -4.05074391 1.93308209 -6 3.625 C-8 5 -8 5 -12 5 C-12.433125 5.928125 -12.433125 5.928125 -12.875 6.875 C-14 9 -14 9 -16 11 C-17.32 11 -18.64 11 -20 11 C-20.268125 11.598125 -20.53625 12.19625 -20.8125 12.8125 C-21.99917406 14.99847854 -23.09599113 16.41332594 -25 18 C-25.66 18 -26.32 18 -27 18 C-29.92341414 22.61068682 -29.92341414 22.61068682 -31.4375 27.75 C-32 30 -32 30 -34.4375 31.5 C-35.283125 31.995 -36.12875 32.49 -37 33 C-39.872803 37.51440472 -39.18029532 42.84155049 -39 48 C-39.66 48 -40.32 48 -41 48 C-40.99476318 48.99741211 -40.98952637 49.99482422 -40.98413086 51.02246094 C-40.96581128 54.77977576 -40.95447113 58.53708677 -40.94506836 62.29443359 C-40.94008898 63.91000028 -40.93330306 65.52556258 -40.92456055 67.14111328 C-40.91221052 69.48471164 -40.90670772 71.82824965 -40.90234375 74.171875 C-40.89718246 74.87552185 -40.89202118 75.5791687 -40.88670349 76.30413818 C-40.88626028 80.41068092 -41.11010992 84.44010263 -41.49720669 88.5290184 C-42.02570206 94.73357714 -42.15246623 100.8865398 -42.15821838 107.11090088 C-42.16315636 108.26863219 -42.16809434 109.4263635 -42.17318195 110.61917758 C-42.18843481 114.46519258 -42.19688417 118.31119105 -42.20532227 122.15722656 C-42.2143759 124.92743791 -42.22487897 127.69764332 -42.23532104 130.46784973 C-42.25698465 136.41483124 -42.27516561 142.36181503 -42.29092598 148.308815 C-42.31371745 156.90699202 -42.34184695 165.50514519 -42.37124526 174.10330185 C-42.41880805 188.05599925 -42.46210257 202.00870646 -42.50268555 215.96142578 C-42.54209825 229.50863405 -42.58353815 243.05583364 -42.62768555 256.60302734 C-42.63040982 257.43922042 -42.63313409 258.27541349 -42.63594092 259.13694575 C-42.64962135 263.33222227 -42.66334143 267.52749866 -42.67708123 271.72277498 C-42.79086811 306.48183195 -42.89771644 341.24090735 -43 376 C-43.33 376 -43.66 376 -44 376 C-44.06868011 334.13018092 -44.1215359 292.26036835 -44.15319599 250.3905041 C-44.15694807 245.44637113 -44.16083104 240.50223827 -44.16479492 235.55810547 C-44.16558185 234.5738257 -44.16636878 233.58954593 -44.16717956 232.5754395 C-44.18023026 216.64219018 -44.20388227 200.70897336 -44.23145839 184.77574332 C-44.2595219 168.42441763 -44.27617826 152.07310894 -44.28226548 135.72176015 C-44.28637996 125.63368978 -44.29937106 115.54571128 -44.3237494 105.45766918 C-44.33961825 98.53809682 -44.34439775 91.6185719 -44.34050413 84.69898267 C-44.33858438 80.70790567 -44.34150867 76.71698911 -44.35761642 72.7259407 C-44.37227291 69.06766315 -44.37291537 65.40965314 -44.36269668 61.75136296 C-44.36083968 59.81020594 -44.37372679 57.86905181 -44.38724393 55.92794096 C-44.30654281 40.12816037 -38.20922558 27.8843535 -28 16 C-27.23623047 15.09314453 -27.23623047 15.09314453 -26.45703125 14.16796875 C-21.08812033 8.29530817 -8.18911951 -2.7297065 0 0 Z " fill="#FEDA12" transform="translate(279,190)"/>
<path d="M0 0 C-0.86625 0.4021875 -0.86625 0.4021875 -1.75 0.8125 C-4.05074391 1.93308209 -4.05074391 1.93308209 -6 3.625 C-8 5 -8 5 -12 5 C-12.433125 5.928125 -12.433125 5.928125 -12.875 6.875 C-14 9 -14 9 -16 11 C-17.32 11 -18.64 11 -20 11 C-20.268125 11.598125 -20.53625 12.19625 -20.8125 12.8125 C-21.99917406 14.99847854 -23.09599113 16.41332594 -25 18 C-25.66 18 -26.32 18 -27 18 C-29.92341414 22.61068682 -29.92341414 22.61068682 -31.4375 27.75 C-32 30 -32 30 -34.4375 31.5 C-35.283125 31.995 -36.12875 32.49 -37 33 C-39.872803 37.51440472 -39.18029532 42.84155049 -39 48 C-39.66 48 -40.32 48 -41 48 C-40.99476318 48.99741211 -40.98952637 49.99482422 -40.98413086 51.02246094 C-40.96581128 54.77977576 -40.95447113 58.53708677 -40.94506836 62.29443359 C-40.94008898 63.91000028 -40.93330306 65.52556258 -40.92456055 67.14111328 C-40.87533365 76.48264173 -40.98446858 85.69878551 -42 95 C-42.33 95 -42.66 95 -43 95 C-43.22037561 88.20530688 -43.41489296 81.4102142 -43.59204102 74.61425781 C-43.65519512 72.30582193 -43.72411534 69.9975359 -43.79907227 67.68945312 C-43.90622701 64.35830687 -43.99215023 61.02716012 -44.07421875 57.6953125 C-44.11157639 56.67511017 -44.14893402 55.65490784 -44.18742371 54.60379028 C-44.49938185 39.50054725 -37.66344894 27.24902592 -28 16 C-27.23623047 15.09314453 -27.23623047 15.09314453 -26.45703125 14.16796875 C-21.08812033 8.29530817 -8.18911951 -2.7297065 0 0 Z " fill="#F7CB27" transform="translate(279,190)"/>
<path d="M0 0 C11.76460175 1.39748783 19.76634358 11.35053394 27.6953125 19.40234375 C28.77894955 20.49159085 29.86326185 21.58016656 30.94821167 22.66810608 C33.77260745 25.50383981 36.58786815 28.34846982 39.40118408 31.19519043 C42.28532435 34.11027269 45.17820408 37.01665488 48.0703125 39.92382812 C53.72202563 45.60750984 59.36409732 51.30064053 65 57 C64.34 57.66 63.68 58.32 63 59 C62.59873901 58.52972382 62.19747803 58.05944763 61.78405762 57.57492065 C54.63771631 49.29340994 46.89902323 41.60107327 39.19384766 33.84375 C37.39257049 32.02582155 35.59668859 30.20253191 33.80615234 28.37402344 C31.20573163 25.71890209 28.58930044 23.08055015 25.96875 20.4453125 C25.17376099 19.62765411 24.37877197 18.80999573 23.55969238 17.96755981 C19.1212297 13.54579239 16.13047173 11.26902762 10 10 C9.690625 9.21625 9.38125 8.4325 9.0625 7.625 C7.56288948 3.92007989 5.20730605 3.28727479 1.6796875 1.69921875 C1.12539063 1.46847656 0.57109375 1.23773438 0 1 C0 0.67 0 0.34 0 0 Z " fill="#F1A010" transform="translate(635,189)"/>
<path d="M0 0 C2.31 0 4.62 0 7 0 C4.77724194 2.3419596 2.41422261 4.21860503 -0.1875 6.125 C-10.87571955 14.40142975 -17.21597925 24.98703382 -23 37 C-23.33 36.34 -23.66 35.68 -24 35 C-24.66 34.67 -25.32 34.34 -26 34 C-25.01 34 -24.02 34 -23 34 C-22.87882813 33.43152344 -22.75765625 32.86304688 -22.6328125 32.27734375 C-21.58677946 27.45754536 -20.40795516 22.7267066 -19 18 C-17.02 17.67 -15.04 17.34 -13 17 C-12.62875 15.081875 -12.62875 15.081875 -12.25 13.125 C-11.27553488 9.21331733 -11.27553488 9.21331733 -9.0625 7.5 C-7 7 -7 7 -4 7 C-3.67 6.01 -3.34 5.02 -3 4 C-2.34 4 -1.68 4 -1 4 C-0.67 2.68 -0.34 1.36 0 0 Z " fill="#232E9D" transform="translate(260,193)"/>
<path d="M0 0 C2.68058502 1.70496574 4.8487516 3.67066812 7 6 C6.67 6.66 6.34 7.32 6 8 C4.50260417 6.73046875 3.00520833 5.4609375 1.5078125 4.19140625 C-2.30533202 1.17842936 -6.3422329 1.49645761 -11 2 C-14.71373314 3.35694095 -16.35252079 4.7995941 -18.23046875 8.28125 C-22.98448126 19.7278044 -25.77931937 32.05681717 -29 44 C-30.30370189 39.76755936 -29.2519088 37.24257983 -28 33 C-27.5617176 30.00824624 -27.25954805 27.01212347 -27 24 C-26.34 24 -25.68 24 -25 24 C-24.34 19.71 -23.68 15.42 -23 11 C-22.34 11 -21.68 11 -21 11 C-20.45627049 7.94152152 -20 5.11227195 -20 2 C-18.906875 1.690625 -17.81375 1.38125 -16.6875 1.0625 C-10.56602939 -0.70131356 -6.29201155 -1.59676426 0 0 Z " fill="#F7C721" transform="translate(541,343)"/>
<path d="M0 0 C0.66 0 1.32 0 2 0 C1.979375 0.78375 1.95875 1.5675 1.9375 2.375 C1.81315937 4.98114961 1.81315937 4.98114961 3 7 C1.71643653 12.56210835 -0.13876006 17.56607085 -3.625 22.125 C-5.12107669 24.16510458 -5.42631 25.56181748 -6 28 C-7.3125 31.1875 -7.3125 31.1875 -9 34 C-11.1875 34.875 -11.1875 34.875 -13 35 C-11.64479932 30.53857203 -9.83598498 26.66102892 -7.625 22.5625 C-3.82988986 15.3042654 -1.79831967 7.97515681 0 0 Z " fill="#642489" transform="translate(789,781)"/>
<path d="M0 0 C0.33 0 0.66 0 1 0 C1.17015625 0.89460937 1.3403125 1.78921875 1.515625 2.7109375 C2.88025955 9.51959287 4.43747181 15.7834528 7.328125 22.109375 C7.54984375 22.73328125 7.7715625 23.3571875 8 24 C7.67 24.66 7.34 25.32 7 26 C6.67 25.01 6.34 24.02 6 23 C5.34 23 4.68 23 4 23 C3.67 22.34 3.34 21.68 3 21 C0.98330173 19.86649466 0.98330173 19.86649466 -1 19 C-0.835 18.4225 -0.67 17.845 -0.5 17.25 C0.14462031 14.73335631 0.14462031 14.73335631 0 11 C-0.66 11 -1.32 11 -2 11 C-1.855625 10.484375 -1.71125 9.96875 -1.5625 9.4375 C-0.84190099 6.31490429 -0.42733561 3.17449308 0 0 Z " fill="#393392" transform="translate(234,780)"/>
<path d="M0 0 C0.33 0.66 0.66 1.32 1 2 C0 5 0 5 -1.9375 6.4375 C-4.14109891 7.83251518 -4.14109891 7.83251518 -4.875 10.125 C-5.24625 10.74375 -5.6175 11.3625 -6 12 C-9.125 12.75 -9.125 12.75 -12 13 C-12.66 12.01 -13.32 11.02 -14 10 C-13.24074219 9.52949219 -12.48148438 9.05898438 -11.69921875 8.57421875 C-10.70535156 7.95160156 -9.71148438 7.32898438 -8.6875 6.6875 C-7.20830078 5.76517578 -7.20830078 5.76517578 -5.69921875 4.82421875 C-3.49827965 3.33675339 -1.76671012 1.9596614 0 0 Z " fill="#6A2A85" transform="translate(771,819)"/>
<path d="M0 0 C0.66 0.33 1.32 0.66 2 1 C1.38737369 3.82080379 0.52845191 6.13808856 -0.84765625 8.671875 C-1.20537109 9.33574219 -1.56308594 9.99960938 -1.93164062 10.68359375 C-2.30482422 11.36550781 -2.67800781 12.04742187 -3.0625 12.75 C-3.43955078 13.44738281 -3.81660156 14.14476562 -4.20507812 14.86328125 C-5.13273388 16.57768302 -6.06583454 18.28913661 -7 20 C-7.33 19.34 -7.66 18.68 -8 18 C-8.66 17.67 -9.32 17.34 -10 17 C-9.01 17 -8.02 17 -7 17 C-6.81824219 16.14728516 -6.81824219 16.14728516 -6.6328125 15.27734375 C-6.10545587 12.84744667 -5.55685962 10.42329946 -5 8 C-4.76603516 6.95005859 -4.76603516 6.95005859 -4.52734375 5.87890625 C-4.0625 4 -4.0625 4 -3 1 C-2.01 0.67 -1.02 0.34 0 0 Z " fill="#2A3499" transform="translate(244,210)"/>
<path d="M0 0 C7.4894958 3.58193277 7.4894958 3.58193277 9.125 8.125 C9.41375 9.07375 9.7025 10.0225 10 11 C6.31889234 11 5.84604315 10.27823173 3.3125 7.75 C2.68988281 7.14671875 2.06726563 6.5434375 1.42578125 5.921875 C0 4 0 4 0 0 Z " fill="#672F88" transform="translate(720,264)"/>
<path d="M0 0 C2.875 -0.1875 2.875 -0.1875 6 0 C6.66 0.99 7.32 1.98 8 3 C7.23816406 3.18175781 6.47632813 3.36351562 5.69140625 3.55078125 C-0.65889864 5.09673563 -6.83123818 6.84093336 -13 9 C-10.51165111 6.35974609 -8.48126339 5.1314106 -5 4 C-4.01 4 -3.02 4 -2 4 C-2 3.34 -2 2.68 -2 2 C-1.34 2 -0.68 2 0 2 C0 1.34 0 0.68 0 0 Z " fill="#282F9A" transform="translate(280,184)"/>
<path d="M0 0 C0.33 0 0.66 0 1 0 C2.4587535 7.02853959 1.20300447 12.229184 -1 19 C-1.99 18.34 -2.98 17.68 -4 17 C-3.71125 16.05125 -3.4225 15.1025 -3.125 14.125 C-1.7889042 9.47729534 -0.89807965 4.74835732 0 0 Z " fill="#F99719" transform="translate(787,777)"/>
<path d="M0 0 C2 1 2 1 3 3 C4.5 7.5 4.5 7.5 6 12 C5.01 12 4.02 12 3 12 C1.61328125 10.35546875 1.61328125 10.35546875 0.3125 8.1875 C-0.12449219 7.47980469 -0.56148437 6.77210938 -1.01171875 6.04296875 C-2 4 -2 4 -2 1 C-1.34 0.67 -0.68 0.34 0 0 Z " fill="#F39720" transform="translate(243,800)"/>
<path d="M0 0 C0.66 0.33 1.32 0.66 2 1 C1.37351562 1.65226563 0.74703125 2.30453125 0.1015625 2.9765625 C-0.71570313 3.85054687 -1.53296875 4.72453125 -2.375 5.625 C-3.59316406 6.91277344 -3.59316406 6.91277344 -4.8359375 8.2265625 C-7.08732405 11.11191349 -8.06276852 13.48795677 -9 17 C-9.99 16.67 -10.98 16.34 -12 16 C-10.58794973 11.70983633 -8.50383651 9.03782149 -5.4375 5.75 C-4.22900391 4.44289062 -4.22900391 4.44289062 -2.99609375 3.109375 C-1 1 -1 1 0 0 Z " fill="#FADD1D" transform="translate(256,201)"/>
<path d="M0 0 C1.45922693 0.11409593 2.91740598 0.24165544 4.375 0.375 C5.59316406 0.47941406 5.59316406 0.47941406 6.8359375 0.5859375 C9 1 9 1 11 3 C8.03 2.505 8.03 2.505 5 2 C4.67 3.32 4.34 4.64 4 6 C2.68 6 1.36 6 0 6 C0 4.02 0 2.04 0 0 Z " fill="#FCA40A" transform="translate(623,186)"/>
<path d="M0 0 C3.95795905 2.36284938 7.88871555 4.76848907 11.8125 7.1875 C12.40998047 7.55552734 13.00746094 7.92355469 13.62304688 8.30273438 C15.08218943 9.20156619 16.54111695 10.10074705 18 11 C17.01 11.495 17.01 11.495 16 12 C13.66573861 10.85089449 11.50584503 9.48937312 9.2890625 8.12890625 C6.827475 6.7051271 6.827475 6.7051271 3 7 C3 6.01 3 5.02 3 4 C2.01 3.34 1.02 2.68 0 2 C0 1.34 0 0.68 0 0 Z " fill="#2D2A9E" transform="translate(255,822)"/>
<path d="M0 0 C6.6 0 13.2 0 20 0 C19.67 0.66 19.34 1.32 19 2 C14.94479925 2.7509631 11.11067369 3 7 3 C7 2.34 7 1.68 7 1 C5.02 1.99 5.02 1.99 3 3 C2.01 2.01 1.02 1.02 0 0 Z " fill="#FED226" transform="translate(433,187)"/>
<path d="M0 0 C0.9075 0.185625 1.815 0.37125 2.75 0.5625 C5.68314324 0.95734621 7.2644657 0.94691572 10 0 C10.33 0.66 10.66 1.32 11 2 C10.01 3.485 10.01 3.485 9 5 C5.625 4.75 5.625 4.75 2 4 C0.5625 1.9375 0.5625 1.9375 0 0 Z " fill="#F99420" transform="translate(278,832)"/>
<path d="M0 0 C3.67033927 3.27708863 5.69281189 6.71522208 8 11 C7.01 10.67 6.02 10.34 5 10 C5 9.34 5 8.68 5 8 C3.35 8.33 1.7 8.66 0 9 C0.185625 8.2575 0.37125 7.515 0.5625 6.75 C0.99203108 4.05009037 0.85122974 2.55368923 0 0 Z " fill="#2E2D9A" transform="translate(242,806)"/>
<path d="M0 0 C2.8045156 1.4022578 3.0442118 3.06070622 4.1875 5.9375 C4.55230469 6.83339844 4.91710937 7.72929688 5.29296875 8.65234375 C6 11 6 11 5 13 C4.67 12.01 4.34 11.02 4 10 C3.34 10 2.68 10 2 10 C-0.09350689 6.5980513 -0.17942163 3.94727588 0 0 Z " fill="#2D2E98" transform="translate(236,793)"/>
<path d="M0 0 C4.01051209 4.01051209 7.68623565 8.39754952 11 13 C7.54798361 11.52278578 5.35038064 9.56205999 2.75 6.875 C2.04359375 6.15054687 1.3371875 5.42609375 0.609375 4.6796875 C-0.18726563 3.84824219 -0.18726563 3.84824219 -1 3 C-0.67 2.01 -0.34 1.02 0 0 Z " fill="#F3BB1F" transform="translate(437,483)"/>
<path d="M0 0 C2 3 2 3 2 5 C2.99 5.33 3.98 5.66 5 6 C4.67 7.32 4.34 8.64 4 10 C-1.57142857 4.85714286 -1.57142857 4.85714286 -2 1 C-1.34 0.67 -0.68 0.34 0 0 Z " fill="#542593" transform="translate(691,232)"/>
<path d="M0 0 C2.31 0.66 4.62 1.32 7 2 C7 2.99 7 3.98 7 5 C9.475 5.99 9.475 5.99 12 7 C11.67 7.66 11.34 8.32 11 9 C9.53699018 8.06981474 8.07974421 7.13055973 6.625 6.1875 C5.81289063 5.66542969 5.00078125 5.14335938 4.1640625 4.60546875 C2 3 2 3 0 0 Z " fill="#F59B15" transform="translate(257,822)"/>
<path d="M0 0 C0.66 1.32 1.32 2.64 2 4 C3.32 4 4.64 4 6 4 C6 4.99 6 5.98 6 7 C5.01 7.33 4.02 7.66 3 8 C0.9375 6.25 0.9375 6.25 -1 4 C-0.75 1.75 -0.75 1.75 0 0 Z " fill="#F49421" transform="translate(250,812)"/>
<path d="M0 0 C-0.33 0.99 -0.66 1.98 -1 3 C-2.32 3 -3.64 3 -5 3 C-5.268125 3.598125 -5.53625 4.19625 -5.8125 4.8125 C-6.98493467 6.97224808 -8.19369282 8.35790256 -10 10 C-10 5.72055436 -7.93901109 3.93901109 -5 1 C-2 0 -2 0 0 0 Z " fill="#F8C92C" transform="translate(264,198)"/>
<path d="M0 0 C1.32 0.33 2.64 0.66 4 1 C-0.455 4.465 -0.455 4.465 -5 8 C-5.66 7.67 -6.32 7.34 -7 7 C-5.93283928 5.79794536 -4.84561663 4.61367667 -3.75 3.4375 C-3.14671875 2.77621094 -2.5434375 2.11492187 -1.921875 1.43359375 C-1.28765625 0.96050781 -0.6534375 0.48742187 0 0 Z " fill="#E8BB23" transform="translate(435,411)"/>
<path d="M0 0 C0.66 0.33 1.32 0.66 2 1 C1.71758359 2.46015291 1.42373386 3.91809793 1.125 5.375 C0.96257812 6.18710937 0.80015625 6.99921875 0.6328125 7.8359375 C0 10 0 10 -2 12 C-2.28571429 3.42857143 -2.28571429 3.42857143 0 0 Z " fill="#F5C123" transform="translate(506,400)"/>
<path d="M0 0 C2.46800047 1.15173355 4.04783565 2.04783565 6 4 C2.33694766 4.74926071 -0.42355152 5.2380014 -4 4 C-3.67 3.34 -3.34 2.68 -3 2 C-2.34 2 -1.68 2 -1 2 C-0.67 1.34 -0.34 0.68 0 0 Z " fill="#F58A24" transform="translate(739,832)"/>
<path d="M0 0 C0.33 0.66 0.66 1.32 1 2 C-0.14018002 5.42054006 -0.92458518 6.2426201 -4 8 C-5.32 7.67 -6.64 7.34 -8 7 C-5.36 4.69 -2.72 2.38 0 0 Z " fill="#5C1F92" transform="translate(771,819)"/>
<path d="M0 0 C0.33 0.66 0.66 1.32 1 2 C0.67 2.66 0.34 3.32 0 4 C0.66 4.33 1.32 4.66 2 5 C0.02 7.31 -1.96 9.62 -4 12 C-4.33 11.34 -4.66 10.68 -5 10 C-4.00390625 7.6171875 -4.00390625 7.6171875 -2.5625 4.875 C-1.85287109 3.50988281 -1.85287109 3.50988281 -1.12890625 2.1171875 C-0.75636719 1.41851563 -0.38382813 0.71984375 0 0 Z " fill="#591C92" transform="translate(786,795)"/>
<path d="M0 0 C1.65 0 3.3 0 5 0 C8 5.625 8 5.625 8 9 C6.66368764 7.6905332 5.33102075 6.37734515 4 5.0625 C3.2575 4.33160156 2.515 3.60070312 1.75 2.84765625 C0 1 0 1 0 0 Z " fill="#FEC521" transform="translate(410,458)"/>
<path d="M0 0 C0.99 0 1.98 0 3 0 C3 0.66 3 1.32 3 2 C4.65 2.33 6.3 2.66 8 3 C8 4.65 8 6.3 8 8 C6.85073734 7.04578192 5.70569459 6.08647955 4.5625 5.125 C3.92441406 4.59132813 3.28632812 4.05765625 2.62890625 3.5078125 C1 2 1 2 0 0 Z " fill="#682E88" transform="translate(767,312)"/>
<path d="M0 0 C1.32 0 2.64 0 4 0 C4.33 0.66 4.66 1.32 5 2 C5.99 2.33 6.98 2.66 8 3 C7.67 3.66 7.34 4.32 7 5 C6.01 5 5.02 5 4 5 C3.67 5.66 3.34 6.32 3 7 C2.67 5.35 2.34 3.7 2 2 C1.34 2 0.68 2 0 2 C0 1.34 0 0.68 0 0 Z " fill="#3F388E" transform="translate(270,833)"/>
<path d="M0 0 C0.99 0.33 1.98 0.66 3 1 C2.34 1 1.68 1 1 1 C0.79375 1.639375 0.5875 2.27875 0.375 2.9375 C-1 5 -1 5 -4.125 5.75 C-5.548125 5.87375 -5.548125 5.87375 -7 6 C-2.25 1.125 -2.25 1.125 0 0 Z " fill="#F7D721" transform="translate(266,194)"/>
<path d="M0 0 C0.99 0.33 1.98 0.66 3 1 C1.68 3.31 0.36 5.62 -1 8 C-1.66 8 -2.32 8 -3 8 C-3 7.01 -3 6.02 -3 5 C-2.34 5 -1.68 5 -1 5 C-0.67 3.35 -0.34 1.7 0 0 Z " fill="#F4931B" transform="translate(781,800)"/>
<path d="M0 0 C3.96 0.33 7.92 0.66 12 1 C12 1.33 12 1.66 12 2 C10.58456585 2.19658808 9.16755969 2.38187546 7.75 2.5625 C6.96109375 2.66691406 6.1721875 2.77132812 5.359375 2.87890625 C2.99467126 3.00027349 1.2488963 2.69633257 -1 2 C-0.67 1.34 -0.34 0.68 0 0 Z " fill="#FECB29" transform="translate(306,187)"/>
<path d="M0 0 C3.3 0 6.6 0 10 0 C9.67 0.99 9.34 1.98 9 3 C2.84765625 2.4140625 2.84765625 2.4140625 1 2 C0.67 1.34 0.34 0.68 0 0 Z " fill="#692A85" transform="translate(735,837)"/>
<path d="M0 0 C0.66 1.32 1.32 2.64 2 4 C0.35 5.65 -1.3 7.3 -3 9 C-3.36923077 3.46153846 -3.36923077 3.46153846 -1.5 1.125 C-1.005 0.75375 -0.51 0.3825 0 0 Z " fill="#6E2D80" transform="translate(789,790)"/>
<path d="M0 0 C2.0625 2.25 2.0625 2.25 4 5 C3.75 7.3125 3.75 7.3125 3 9 C2.34 9 1.68 9 1 9 C0.67 6.03 0.34 3.06 0 0 Z " fill="#FD9B1D" transform="translate(531,741)"/>
<path d="M0 0 C1.65 0.33 3.3 0.66 5 1 C4.67 1.99 4.34 2.98 4 4 C2.35 4.33 0.7 4.66 -1 5 C-0.67 3.35 -0.34 1.7 0 0 Z " fill="#F8911C" transform="translate(752,827)"/>
<path d="M0 0 C-2.66559313 1.77706209 -5.0280615 2.87548273 -8 4 C-8 3.34 -8 2.68 -8 2 C-8.66 1.67 -9.32 1.34 -10 1 C-6.52674819 -0.1577506 -3.63932552 -0.06866652 0 0 Z " fill="#FCCB2B" transform="translate(293,188)"/>
</svg>
